<svg width="24" xmlns="http://www.w3.org/2000/svg" height="24" id="screenshot-109121c4-564b-8056-8006-a2b8387f81ea" viewBox="0 0 24 24" xmlns:xlink="http://www.w3.org/1999/xlink" fill="none" version="1.1"><g id="shape-109121c4-564b-8056-8006-a2b8387f81ea" width="24" height="24" rx="0" ry="0" style="fill: rgb(0, 0, 0);"><g id="shape-109121c4-564b-8056-8006-a2b8388054e1" style="display: none;"><g class="fills" id="fills-109121c4-564b-8056-8006-a2b8388054e1"><rect width="24" height="24" x="0" transform="matrix(1.000000, 0.000000, 0.000000, 1.000000, 0.000000, 0.000000)" style="fill: rgb(255, 179, 67); fill-opacity: 1;" ry="0" fill="none" rx="0" y="0"/></g></g><g id="shape-109121c4-564b-8056-8006-a2b83880dbeb"><g class="fills" id="fills-109121c4-564b-8056-8006-a2b83880dbeb"><path d="M9,3C9.5888671875,2.99993896484375,10.148193359375,3.259521484375,10.5283203125,3.70953369140625C10.908203125,4.15960693359375,11.07080078125,4.7542724609375,10.97216796875,5.33502197265625L12.94482421875,5.66497802734375C13.02099609375,5.21435546875,13.01953125,4.7540283203125,12.93994140625,4.30401611328125C13.71875,3.81634521484375,14.7294921875,3.9219970703125,15.390625,4.56005859375C16.051513671875,5.19818115234375,16.19287109375,6.20458984375,15.73291015625,7L5,7C4.57421875,6.99951171875,4.195556640625,6.7296142578125,4.05615234375,6.327392578125C3.9169921875,5.9251708984375,4.04736328125,5.47882080078125,4.38134765625,5.215087890625C4.7158203125,4.9512939453125,5.18017578125,4.92803955078125,5.5390625,5.156982421875C5.8125,5.33209228515625,6.153564453125,5.36358642578125,6.454345703125,5.24151611328125C6.755126953125,5.11944580078125,6.97802734375,4.8590087890625,7.052001953125,4.54302978515625C7.26416015625,3.63873291015625,8.0712890625,2.99957275390625,9,3M10.51611328125,1.2969970703125C8.64599609375,0.53076171875,6.498046875,1.2799072265625,5.510009765625,3.04302978515625C4.19091796875,2.8150634765625,2.880615234375,3.488525390625,2.298095703125,4.69366455078125C1.7158203125,5.8988037109375,2.001953125,7.343994140625,3,8.23602294921875L3,20C3,21.10455322265625,3.8955078125,22,5,22L15,22C16.1044921875,22,17,21.10455322265625,17,20L19,20C20.1044921875,20,21,19.10455322265625,21,18L21,11C21,9.89544677734375,20.1044921875,9,19,9L17,9L17,8.64599609375C18.283203125,7.1932373046875,18.33984375,5.0296630859375,17.13525390625,3.51141357421875C15.93017578125,1.99322509765625,13.81005859375,1.55731201171875,12.10400390625,2.47698974609375C11.681884765625,1.9569091796875,11.1357421875,1.5511474609375,10.51611328125,1.2969970703125M17,11L19,11L19,18L17,18ZM15,9L15,20L5,20L5,9ZM7,11L7,18L9,18L9,11ZM13,11L13,18L11,18L11,11Z" fill="2e2e2e" style="fill: rgb(255, 179, 67); fill-opacity: 1;"/></g></g></g></svg>