<!DOCTYPE svg PUBLIC "-//W3C//DTD SVG 1.1//EN" "http://www.w3.org/Graphics/SVG/1.1/DTD/svg11.dtd">
<!-- Uploaded to: SVG Repo, www.svgrepo.com, Transformed by: SVG Repo Mixer Tools -->
<svg height="800px" width="800px" version="1.1" id="_x32_" xmlns="http://www.w3.org/2000/svg" xmlns:xlink="http://www.w3.org/1999/xlink" viewBox="0 0 512 512" xml:space="preserve" fill="#000000">
<g id="SVGRepo_bgCarrier" stroke-width="0"/>
<g id="SVGRepo_tracerCarrier" stroke-linecap="round" stroke-linejoin="round"/>
<g id="SVGRepo_iconCarrier"> <style type="text/css"> .st0{fill:#f6a852;} </style> <g> <path class="st0" d="M349.752,168.326c0,0,1.757-9.405-2.994-22.459c-6.174-16.971-14.618-26.049-25.466-34.724 c-15.432-12.342-21.768-11.169-30.39-25.55c-8.098-13.49,5.61-21.581,5.61-45.085C296.511,18.138,278.373,0,256.003,0 c-22.376,0-40.514,18.138-40.514,40.508c0,23.504,13.708,31.596,5.616,45.085c-8.63,14.381-14.964,13.208-30.397,25.55 c-10.848,8.675-19.292,17.753-25.466,34.724c-4.744,13.054-2.994,22.459-2.994,22.459H349.752z"/> <polygon class="st0" points="173.597,314.014 238.314,314.014 238.314,296.357 175.821,296.357 "/> <polygon class="st0" points="167.66,361.068 238.314,361.068 238.314,343.436 169.891,343.436 "/> <polygon class="st0" points="161.71,408.148 238.314,408.148 238.314,390.49 163.935,390.49 "/> <path class="st0" d="M402.133,459.746c0-2.173-0.135-4.366-0.41-6.546l-24.466-193.735c-0.821-6.508-2.828-12.65-5.79-18.164 c-1.25-2.321-2.68-4.52-4.244-6.604h2.129v-30.339c0-11.874-9.63-21.504-21.504-21.504H164.153 c-11.874,0-21.498,9.63-21.498,21.504v30.339h2.11c-1.558,2.084-2.982,4.283-4.226,6.604c-2.962,5.514-4.975,11.656-5.796,18.164 l-24.466,193.735c-0.276,2.18-0.41,4.366-0.41,6.546c0,12.65,4.591,24.954,13.06,34.558v-0.006 C132.845,505.557,147.124,512,162.12,512h187.76c15.002,0,29.281-6.443,39.2-17.702l-0.007,0.006 C397.543,484.706,402.133,472.396,402.133,459.746z M370.108,477.577v0.006c-5.116,5.802-12.489,9.13-20.228,9.13H162.12 c-7.738,0-15.111-3.328-20.228-9.13v-0.006c-4.367-4.95-6.739-11.303-6.739-17.83c0-1.128,0.07-2.25,0.212-3.378l24.466-193.735 c0.429-3.392,1.461-6.533,2.981-9.368c2.282-4.257,5.693-7.828,9.79-10.316c4.11-2.488,8.861-3.904,13.984-3.904h138.828 c3.424,0,6.668,0.628,9.674,1.789c4.508,1.732,8.476,4.661,11.457,8.418c2.982,3.757,4.982,8.296,5.623,13.381l24.466,193.735 c0.141,1.128,0.212,2.256,0.212,3.378C376.847,466.274,374.475,472.627,370.108,477.577z"/> </g> </g>
</svg>