<svg width="24" xmlns="http://www.w3.org/2000/svg" height="24" id="screenshot-109121c4-564b-8056-8006-a2b84fde41f1" viewBox="0 0 24 24" xmlns:xlink="http://www.w3.org/1999/xlink" fill="none" version="1.1"><g id="shape-109121c4-564b-8056-8006-a2b84fde41f1" width="24" height="24" rx="0" ry="0" style="fill: rgb(0, 0, 0);"><g id="shape-109121c4-564b-8056-8006-a2b84fdf08e6" style="display: none;"><g class="fills" id="fills-109121c4-564b-8056-8006-a2b84fdf08e6"><rect width="24" height="24" x="0" transform="matrix(1.000000, 0.000000, 0.000000, 1.000000, 0.000000, 0.000000)" style="fill: rgb(255, 179, 67); fill-opacity: 1;" ry="0" fill="none" rx="0" y="0"/></g><g fill="none" id="strokes-2da3d948-783f-80bf-8006-c5e061c5d27a-109121c4-564b-8056-8006-a2b84fdf08e6" class="strokes"><g class="inner-stroke-shape" transform="matrix(1.000000, 0.000000, 0.000000, 1.000000, 0.000000, 0.000000)"><defs><clipPath id="inner-stroke-render-2-109121c4-564b-8056-8006-a2b84fdf08e6-0"><use href="#stroke-shape-render-2-109121c4-564b-8056-8006-a2b84fdf08e6-0"/></clipPath><rect rx="0" ry="0" x="0" y="0" width="24" height="24" id="stroke-shape-render-2-109121c4-564b-8056-8006-a2b84fdf08e6-0" style="fill: none; stroke-width: 4; stroke: rgb(255, 179, 67); stroke-opacity: 1;"/></defs><use href="#stroke-shape-render-2-109121c4-564b-8056-8006-a2b84fdf08e6-0" clip-path="url('#inner-stroke-render-2-109121c4-564b-8056-8006-a2b84fdf08e6-0')"/></g></g></g><g id="shape-109121c4-564b-8056-8006-a2b84fdf4dde"><g class="fills" id="fills-109121c4-564b-8056-8006-a2b84fdf4dde"><path d="M3.194091796875,14.0770263671875C1.946044921875,15.3079833984375,1.843994140625,17.61700439453125,2.136962890625,19.7509765625C2.402099609375,21.68597412109375,4.5791015625,22.5989990234375,6.2119140625,21.57598876953125C9.198974609375,19.70599365234375,12.318115234375,17.24200439453125,15.306884765625,14.29498291015625C18.376953125,11.26702880859375,20.06005859375,8.96099853515625,21.5439453125,6.36798095703125C22.444091796875,4.79498291015625,22.02197265625,2.697998046875,20.199951171875,2.23199462890625C18.205078125,1.7230224609375,15.6201171875,1.9320068359375,13.337890625,4.0780029296875M3.194091796875,14.0780029296875C2.360107421875,10.3380126953125,5.2900390625,5.9320068359375,12.166015625,9.79400634765625M3.194091796875,14.0770263671875C3.81689453125,14.09002685546875,5.218017578125,14.37200927734375,6.553955078125,15.32501220703125M6.845947265625,8.19500732421875C6.908935546875,6.2550048828125,8.822998046875,3.0050048828125,13.337890625,4.0780029296875M13.337890625,4.0780029296875C14.303955078125,4.3079833984375,15.389892578125,4.7349853515625,16.60205078125,5.416015625" fill="none" stroke="2e2e2e" stroke-linecap="round" stroke-linejoin="round" stroke-width="1.5" style="fill: none;"/></g><g fill="none" stroke="2e2e2e" stroke-linecap="round" stroke-linejoin="round" stroke-width="1.5" id="strokes-2da3d948-783f-80bf-8006-c5e061c73a93-109121c4-564b-8056-8006-a2b84fdf4dde" class="strokes"><g class="stroke-shape"><path d="M3.194091796875,14.0770263671875C1.946044921875,15.3079833984375,1.843994140625,17.61700439453125,2.136962890625,19.7509765625C2.402099609375,21.68597412109375,4.5791015625,22.5989990234375,6.2119140625,21.57598876953125C9.198974609375,19.70599365234375,12.318115234375,17.24200439453125,15.306884765625,14.29498291015625C18.376953125,11.26702880859375,20.06005859375,8.96099853515625,21.5439453125,6.36798095703125C22.444091796875,4.79498291015625,22.02197265625,2.697998046875,20.199951171875,2.23199462890625C18.205078125,1.7230224609375,15.6201171875,1.9320068359375,13.337890625,4.0780029296875M3.194091796875,14.0780029296875C2.360107421875,10.3380126953125,5.2900390625,5.9320068359375,12.166015625,9.79400634765625M3.194091796875,14.0770263671875C3.81689453125,14.09002685546875,5.218017578125,14.37200927734375,6.553955078125,15.32501220703125M6.845947265625,8.19500732421875C6.908935546875,6.2550048828125,8.822998046875,3.0050048828125,13.337890625,4.0780029296875M13.337890625,4.0780029296875C14.303955078125,4.3079833984375,15.389892578125,4.7349853515625,16.60205078125,5.416015625" style="fill: none; stroke-width: 2; stroke: rgb(255, 179, 67); stroke-opacity: 1;"/></g></g></g></g></svg>