<svg width="24" xmlns="http://www.w3.org/2000/svg" height="24" id="screenshot-7e1b7f94-06ff-8044-8006-c556e47fe8c4" viewBox="0 0 24 24" xmlns:xlink="http://www.w3.org/1999/xlink" fill="none" version="1.1"><g id="shape-7e1b7f94-06ff-8044-8006-c556e47fe8c4" width="24" height="24" rx="0" ry="0" style="fill: rgb(0, 0, 0);"><g id="shape-7e1b7f94-06ff-8044-8006-c556e4809e63" style="display: none;"><g class="fills" id="fills-7e1b7f94-06ff-8044-8006-c556e4809e63"><rect width="24" height="24" x="0" transform="matrix(1.000000, 0.000000, 0.000000, 1.000000, 0.000000, 0.000000)" style="fill: none;" ry="0" fill="none" rx="0" y="0"/></g></g><g id="shape-7e1b7f94-06ff-8044-8006-c556e4813fd9"><g class="fills" id="fills-7e1b7f94-06ff-8044-8006-c556e4813fd9"><path d="M16.9501953125,8.4639892578125C17.3291015625,8.0716552734375,17.32373046875,7.4478759765625,16.93798828125,7.0621337890625C16.55224609375,6.6763916015625,15.92822265625,6.6710205078125,15.5361328125,7.050048828125L12,10.5860595703125L8.4638671875,7.050048828125C8.212890625,6.7900390625,7.84130859375,6.685791015625,7.49169921875,6.77734375C7.14208984375,6.8687744140625,6.86865234375,7.141845703125,6.77734375,7.491455078125C6.685546875,7.841064453125,6.7900390625,8.212890625,7.0498046875,8.4639892578125L10.5859375,12L7.0498046875,15.5360107421875C6.7900390625,15.787109375,6.685546875,16.158935546875,6.77734375,16.508544921875C6.86865234375,16.858154296875,7.14208984375,17.1312255859375,7.49169921875,17.22265625C7.84130859375,17.314208984375,8.212890625,17.2099609375,8.4638671875,16.949951171875L12,13.4139404296875L15.5361328125,16.949951171875C15.787109375,17.2099609375,16.15869140625,17.314208984375,16.50830078125,17.22265625C16.85791015625,17.1312255859375,17.13134765625,16.858154296875,17.22265625,16.508544921875C17.314453125,16.158935546875,17.2099609375,15.787109375,16.9501953125,15.5360107421875L13.4140625,12Z" fill="2e2e2e"/></g></g></g></svg>