<svg width="24" xmlns="http://www.w3.org/2000/svg" height="24" id="screenshot-109121c4-564b-8056-8006-a2ba21d3f8f2" viewBox="0 0 24 24" xmlns:xlink="http://www.w3.org/1999/xlink" fill="none" version="1.1"><g id="shape-109121c4-564b-8056-8006-a2ba21d3f8f2" width="16" height="16" rx="0" ry="0" style="fill: rgb(0, 0, 0);"><g id="shape-109121c4-564b-8056-8006-a2ba21d5a31c" style="display: none;"><g class="fills" id="fills-109121c4-564b-8056-8006-a2ba21d5a31c"><rect width="24" height="24" x="0" transform="matrix(1.000000, 0.000000, 0.000000, 1.000000, 0.000000, 0.000000)" style="fill: rgb(255, 179, 67); fill-opacity: 1;" ry="0" fill="none" rx="0" y="0"/></g></g><g id="shape-109121c4-564b-8056-8006-a2ba21d64a5e"><g class="fills" id="fills-109121c4-564b-8056-8006-a2ba21d64a5e"><path d="M9.75,18C9.75,18.414306640625,9.413818359375,18.75,9,18.75L7.5,18.75C7.086181640625,18.75,6.75,18.414306640625,6.75,18C6.75,17.585693359375,7.086181640625,17.25,7.5,17.25L9,17.25C9.413818359375,17.25,9.75,17.585693359375,9.75,18M16.5,17.25L15,17.25C14.586181640625,17.25,14.25,17.585693359375,14.25,18C14.25,18.414306640625,14.586181640625,18.75,15,18.75L16.5,18.75C16.913818359375,18.75,17.25,18.414306640625,17.25,18C17.25,17.585693359375,16.913818359375,17.25,16.5,17.25M22.9111328125,11.44891357421875C22.62646484375,11.797607421875,22.20068359375,11.99993896484375,21.75,12L18.75,12L18.75,15C20.04150390625,15.9683837890625,20.568359375,17.65447998046875,20.05712890625,19.18609619140625C19.546875,20.7171630859375,18.1142578125,21.75,16.5,21.75L7.5,21.75C5.8857421875,21.75,4.453125,20.7171630859375,3.94287109375,19.18609619140625C3.431640625,17.65447998046875,3.95849609375,15.9683837890625,5.25,15L5.25,12L2.25,12C1.8037109375,11.99951171875,1.380126953125,11.7994384765625,1.095703125,11.455078125C0.8115234375,11.11077880859375,0.69482421875,10.65771484375,0.779296875,10.21875C1.274658203125,7.76806640625,3.427001953125,6.00457763671875,5.9267578125,6L6.0810546875,6C5.069091796875,5.0142822265625,4.49951171875,3.66204833984375,4.5,2.25C4.5,1.835693359375,4.836181640625,1.5,5.25,1.5C5.663818359375,1.5,6,1.835693359375,6,2.25C6,4.3211669921875,7.6787109375,6,9.75,6L14.25,6C16.3212890625,6,18,4.3211669921875,18,2.25C18,1.835693359375,18.336181640625,1.5,18.75,1.5C19.163818359375,1.5,19.5,1.835693359375,19.5,2.25C19.50048828125,3.66204833984375,18.930908203125,5.0142822265625,17.9189453125,6L18.0732421875,6C20.572998046875,6.00457763671875,22.725341796875,7.76806640625,23.220703125,10.21875C23.3076171875,10.6541748046875,23.19384765625,11.10595703125,22.9111328125,11.44891357421875M13.5,11.625C13.5,12.2462158203125,14.00390625,12.75,14.625,12.75C15.24609375,12.75,15.75,12.2462158203125,15.75,11.625C15.75,11.0037841796875,15.24609375,10.5,14.625,10.5C14.00390625,10.5,13.5,11.0037841796875,13.5,11.625M8.25,11.625C8.25,12.2462158203125,8.75390625,12.75,9.375,12.75C9.99609375,12.75,10.5,12.2462158203125,10.5,11.625C10.5,11.0037841796875,9.99609375,10.5,9.375,10.5C8.75390625,10.5,8.25,11.0037841796875,8.25,11.625M5.25,10.5L5.25,9.75C5.2490234375,8.93841552734375,5.51171875,8.14862060546875,6,7.5L5.924560546875,7.5C4.1435546875,7.5029296875,2.60986328125,8.7554931640625,2.25,10.5ZM18.75,18C18.75,16.75750732421875,17.742431640625,15.75,16.5,15.75L7.5,15.75C6.257568359375,15.75,5.25,16.75750732421875,5.25,18C5.25,19.24249267578125,6.257568359375,20.25,7.5,20.25L16.5,20.25C17.742431640625,20.25,18.75,19.24249267578125,18.75,18M21.75,10.5C21.390625,8.75537109375,19.8564453125,7.502685546875,18.075439453125,7.5L18,7.5C18.48828125,8.14862060546875,18.7509765625,8.93841552734375,18.75,9.75L18.75,10.5Z" fill="2e2e2e" style="fill: rgb(255, 179, 67); fill-opacity: 1;"/></g></g></g></svg>