<svg width="24" xmlns="http://www.w3.org/2000/svg" height="24" id="screenshot-109121c4-564b-8056-8006-a2b8c3bd315b" viewBox="0 0 24 24" xmlns:xlink="http://www.w3.org/1999/xlink" fill="none" version="1.1"><g id="shape-109121c4-564b-8056-8006-a2b8c3bd315b" width="24" height="24" rx="0" ry="0" style="fill: rgb(0, 0, 0);"><g id="shape-109121c4-564b-8056-8006-a2b8c3beff6e" style="display: none;"><g class="fills" id="fills-109121c4-564b-8056-8006-a2b8c3beff6e"><rect width="24" height="24" x="0" transform="matrix(1.000000, 0.000000, 0.000000, 1.000000, 0.000000, 0.000000)" style="fill: none;" ry="0" fill="none" rx="0" y="0"/></g><g fill="none" id="strokes-e14896f6-412d-80f6-8006-c5e08f2d21f4-109121c4-564b-8056-8006-a2b8c3beff6e" class="strokes"><g class="inner-stroke-shape" transform="matrix(1.000000, 0.000000, 0.000000, 1.000000, 0.000000, 0.000000)"><defs><clipPath id="inner-stroke-render-2-109121c4-564b-8056-8006-a2b8c3beff6e-0"><use href="#stroke-shape-render-2-109121c4-564b-8056-8006-a2b8c3beff6e-0"/></clipPath><rect rx="0" ry="0" x="0" y="0" width="24" height="24" id="stroke-shape-render-2-109121c4-564b-8056-8006-a2b8c3beff6e-0" style="fill: none; stroke-width: 4; stroke: rgb(255, 179, 67); stroke-opacity: 1;"/></defs><use href="#stroke-shape-render-2-109121c4-564b-8056-8006-a2b8c3beff6e-0" clip-path="url('#inner-stroke-render-2-109121c4-564b-8056-8006-a2b8c3beff6e-0')"/></g></g></g><g id="shape-109121c4-564b-8056-8006-a2b8c3bf23c7" rx="0" ry="0" style="fill: rgb(0, 0, 0);"><g id="shape-109121c4-564b-8056-8006-a2b8c3bf5b2a"><g class="fills" id="fills-109121c4-564b-8056-8006-a2b8c3bf5b2a"><path d="M3,13C3,10.79083251953125,4.790771484375,9,7,9L17,9C19.208984375,9,21,10.79083251953125,21,13L21,20C21,21.10455322265625,20.1044921875,22,19,22L5,22C3.8955078125,22,3,21.10455322265625,3,20Z" stroke="2e2e2e" fill="none" stroke-linecap="round" stroke-width="2" stroke-linejoin="round" style="fill: none;"/></g><g stroke="2e2e2e" fill="none" stroke-linecap="round" stroke-width="2" stroke-linejoin="round" id="strokes-e14896f6-412d-80f6-8006-c5e08f2e4362-109121c4-564b-8056-8006-a2b8c3bf5b2a" class="strokes"><g class="inner-stroke-shape"><defs><clipPath id="inner-stroke-render-4-109121c4-564b-8056-8006-a2b8c3bf5b2a-0"><use href="#stroke-shape-render-4-109121c4-564b-8056-8006-a2b8c3bf5b2a-0"/></clipPath><path d="M3,13C3,10.79083251953125,4.790771484375,9,7,9L17,9C19.208984375,9,21,10.79083251953125,21,13L21,20C21,21.10455322265625,20.1044921875,22,19,22L5,22C3.8955078125,22,3,21.10455322265625,3,20Z" id="stroke-shape-render-4-109121c4-564b-8056-8006-a2b8c3bf5b2a-0" style="fill: none; stroke-width: 4; stroke: rgb(255, 179, 67); stroke-opacity: 1;"/></defs><use href="#stroke-shape-render-4-109121c4-564b-8056-8006-a2b8c3bf5b2a-0" clip-path="url('#inner-stroke-render-4-109121c4-564b-8056-8006-a2b8c3bf5b2a-0')"/></g></g></g><g id="shape-109121c4-564b-8056-8006-a2b8c3bf5b2b"><g class="fills" id="fills-109121c4-564b-8056-8006-a2b8c3bf5b2b"><path d="M5,13L7.428466796875,15.34271240234375C8.41748046875,16.2974853515625,9.844970703125,16.20196533203125,10.74072265625,15.12164306640625L10.74072265625,15.12164306640625C11.207275390625,14.558837890625,11.840087890625,14.24267578125,12.5,14.24267578125C13.159912109375,14.24267578125,13.79248046875,14.558837890625,14.25927734375,15.12164306640625L14.25927734375,15.12164306640625C15.155517578125,16.20220947265625,16.58203125,16.29742431640625,17.57177734375,15.34271240234375L20,13" stroke="2e2e2e" fill="none" stroke-linecap="round" stroke-width="2" style="fill: none;"/></g><g stroke="2e2e2e" fill="none" stroke-linecap="round" stroke-width="2" id="strokes-e14896f6-412d-80f6-8006-c5e08f2ed856-109121c4-564b-8056-8006-a2b8c3bf5b2b" class="strokes"><g class="stroke-shape"><path d="M5,13L7.428466796875,15.34271240234375C8.41748046875,16.2974853515625,9.844970703125,16.20196533203125,10.74072265625,15.12164306640625L10.74072265625,15.12164306640625C11.207275390625,14.558837890625,11.840087890625,14.24267578125,12.5,14.24267578125C13.159912109375,14.24267578125,13.79248046875,14.558837890625,14.25927734375,15.12164306640625L14.25927734375,15.12164306640625C15.155517578125,16.20220947265625,16.58203125,16.29742431640625,17.57177734375,15.34271240234375L20,13" style="fill: none; stroke-width: 2; stroke: rgb(255, 179, 67); stroke-opacity: 1;"/></g></g></g><g id="shape-109121c4-564b-8056-8006-a2b8c3bf803c"><g class="fills" id="fills-109121c4-564b-8056-8006-a2b8c3bf803c"><path d="M12,6C10.8955078125,6,10,5.10455322265625,10,4C10,3.1240234375,10.677001953125,2.42401123046875,11.27294921875,1.78302001953125L12,1L12.72705078125,1.78302001953125C13.322998046875,2.42401123046875,14,3.1240234375,14,4C14,5.10455322265625,13.1044921875,6,12,6" stroke="2e2e2e" fill="none" stroke-linecap="round" stroke-width="2" stroke-linejoin="round" style="fill: none;"/></g><g stroke="2e2e2e" fill="none" stroke-linecap="round" stroke-width="2" stroke-linejoin="round" id="strokes-e14896f6-412d-80f6-8006-c5e08f2f5ada-109121c4-564b-8056-8006-a2b8c3bf803c" class="strokes"><g class="inner-stroke-shape"><defs><clipPath id="inner-stroke-render-6-109121c4-564b-8056-8006-a2b8c3bf803c-0"><use href="#stroke-shape-render-6-109121c4-564b-8056-8006-a2b8c3bf803c-0"/></clipPath><path d="M12,6C10.8955078125,6,10,5.10455322265625,10,4C10,3.1240234375,10.677001953125,2.42401123046875,11.27294921875,1.78302001953125L12,1L12.72705078125,1.78302001953125C13.322998046875,2.42401123046875,14,3.1240234375,14,4C14,5.10455322265625,13.1044921875,6,12,6" id="stroke-shape-render-6-109121c4-564b-8056-8006-a2b8c3bf803c-0" style="fill: none; stroke-width: 4; stroke: rgb(255, 179, 67); stroke-opacity: 1;"/></defs><use href="#stroke-shape-render-6-109121c4-564b-8056-8006-a2b8c3bf803c-0" clip-path="url('#inner-stroke-render-6-109121c4-564b-8056-8006-a2b8c3bf803c-0')"/></g></g></g></g></g></svg>