<svg width="24" xmlns="http://www.w3.org/2000/svg" height="24" id="screenshot-109121c4-564b-8056-8006-a2ba45dad8f7" viewBox="0 0 24 24" xmlns:xlink="http://www.w3.org/1999/xlink" fill="none" version="1.1"><g id="shape-109121c4-564b-8056-8006-a2ba45dad8f7" width="24" height="24" rx="0" ry="0" style="fill: rgb(0, 0, 0);"><g id="shape-109121c4-564b-8056-8006-a2ba45dba2ab" style="display: none;"><g class="fills" id="fills-109121c4-564b-8056-8006-a2ba45dba2ab"><rect width="24" height="24" x="0" transform="matrix(1.000000, 0.000000, 0.000000, 1.000000, 0.000000, 0.000000)" style="fill: none;" ry="0" fill="none" rx="0" y="0"/></g><g fill="none" id="strokes-8f2945fd-3c26-80df-8006-c5e0aeec834b-109121c4-564b-8056-8006-a2ba45dba2ab" class="strokes"><g class="inner-stroke-shape" transform="matrix(1.000000, 0.000000, 0.000000, 1.000000, 0.000000, 0.000000)"><defs><clipPath id="inner-stroke-render-2-109121c4-564b-8056-8006-a2ba45dba2ab-0"><use href="#stroke-shape-render-2-109121c4-564b-8056-8006-a2ba45dba2ab-0"/></clipPath><rect rx="0" ry="0" x="0" y="0" width="24" height="24" id="stroke-shape-render-2-109121c4-564b-8056-8006-a2ba45dba2ab-0" style="fill: none; stroke-width: 4; stroke: rgb(255, 179, 67); stroke-opacity: 1;"/></defs><use href="#stroke-shape-render-2-109121c4-564b-8056-8006-a2ba45dba2ab-0" clip-path="url('#inner-stroke-render-2-109121c4-564b-8056-8006-a2ba45dba2ab-0')"/></g></g></g><g id="shape-109121c4-564b-8056-8006-a2ba45dba2ac" rx="0" ry="0" style="fill: rgb(0, 0, 0);"><g id="shape-109121c4-564b-8056-8006-a2ba45dbdb33"><g class="fills" id="fills-109121c4-564b-8056-8006-a2ba45dbdb33"><path d="M12,20.510009765625C13.21533203125,20.510009765625,13.71533203125,21.16497802734375,14.366943359375,21.31048583984375C15.0185546875,21.45648193359375,15.5654296875,21.49652099609375,16.12548828125,21.25C17.23486328125,20.760986328125,17.9111328125,20.17901611328125,18.7314453125,19.30950927734375C20.25244140625,17.697509765625,21,15.48199462890625,21,12.5145263671875C21,9.5469970703125,20.199951171875,8.01300048828125,18.966552734375,7.010009765625C17.73291015625,6.00701904296875,17.0185546875,5.81500244140625,15.52734375,6.00701904296875C14.03662109375,6.198974609375,13.224609375,7.801513671875,12.00390625,7.801513671875C10.783447265625,7.801513671875,9.29638671875,6.22149658203125,8.0029296875,6.00701904296875C6.708984375,5.7919921875,6,6.00701904296875,4.8798828125,7.010009765625C3.760009765625,8.01300048828125,3,9.57501220703125,3,12.5150146484375C3,15.4539794921875,3.77587890625,17.63299560546875,5.29638671875,19.2449951171875C6.116455078125,20.114501953125,6.76513671875,20.761474609375,7.87451171875,21.25C8.4345703125,21.49700927734375,9.013671875,21.45703125,9.64208984375,21.31097412109375C10.27099609375,21.166015625,10.77099609375,20.510986328125,12,20.510986328125Z" stroke="2e2e2e" fill="none" stroke-width="4" clip-rule="evenodd" style="fill: none;"/></g><g stroke="2e2e2e" fill="none" stroke-width="4" clip-rule="evenodd" id="strokes-8f2945fd-3c26-80df-8006-c5e0aeedec29-109121c4-564b-8056-8006-a2ba45dbdb33" class="strokes"><g class="inner-stroke-shape"><defs><clipPath id="inner-stroke-render-4-109121c4-564b-8056-8006-a2ba45dbdb33-0"><use href="#stroke-shape-render-4-109121c4-564b-8056-8006-a2ba45dbdb33-0"/></clipPath><path d="M12,20.510009765625C13.21533203125,20.510009765625,13.71533203125,21.16497802734375,14.366943359375,21.31048583984375C15.0185546875,21.45648193359375,15.5654296875,21.49652099609375,16.12548828125,21.25C17.23486328125,20.760986328125,17.9111328125,20.17901611328125,18.7314453125,19.30950927734375C20.25244140625,17.697509765625,21,15.48199462890625,21,12.5145263671875C21,9.5469970703125,20.199951171875,8.01300048828125,18.966552734375,7.010009765625C17.73291015625,6.00701904296875,17.0185546875,5.81500244140625,15.52734375,6.00701904296875C14.03662109375,6.198974609375,13.224609375,7.801513671875,12.00390625,7.801513671875C10.783447265625,7.801513671875,9.29638671875,6.22149658203125,8.0029296875,6.00701904296875C6.708984375,5.7919921875,6,6.00701904296875,4.8798828125,7.010009765625C3.760009765625,8.01300048828125,3,9.57501220703125,3,12.5150146484375C3,15.4539794921875,3.77587890625,17.63299560546875,5.29638671875,19.2449951171875C6.116455078125,20.114501953125,6.76513671875,20.761474609375,7.87451171875,21.25C8.4345703125,21.49700927734375,9.013671875,21.45703125,9.64208984375,21.31097412109375C10.27099609375,21.166015625,10.77099609375,20.510986328125,12,20.510986328125Z" id="stroke-shape-render-4-109121c4-564b-8056-8006-a2ba45dbdb33-0" style="fill: none; stroke-width: 4; stroke: rgb(255, 179, 67); stroke-opacity: 1;"/></defs><use href="#stroke-shape-render-4-109121c4-564b-8056-8006-a2ba45dbdb33-0" clip-path="url('#inner-stroke-render-4-109121c4-564b-8056-8006-a2ba45dbdb33-0')"/></g></g></g><g id="shape-109121c4-564b-8056-8006-a2ba45dbdb34"><g class="fills" id="fills-109121c4-564b-8056-8006-a2ba45dbdb34"><path d="M12.00439453125,7.801513671875C12.39697265625,3.933837890625,14.063720703125,2,17.0048828125,2C17.27490234375,2.81365966796875,17.3447265625,3.60150146484375,17.2138671875,4.363525390625C17.15234375,4.72515869140625,16.960205078125,5.24102783203125,16.637451171875,5.9110107421875M7.114501953125,13C6.97607421875,13.6729736328125,6.97607421875,14.3658447265625,7.114501953125,15.0784912109375C7.25244140625,15.79083251953125,7.546875,16.3408203125,7.998046875,16.728515625" stroke="2e2e2e" fill="none" stroke-width="4" stroke-linecap="round" style="fill: none;"/></g><g stroke="2e2e2e" fill="none" stroke-width="4" stroke-linecap="round" id="strokes-8f2945fd-3c26-80df-8006-c5e0aeee466b-109121c4-564b-8056-8006-a2ba45dbdb34" class="strokes"><g class="stroke-shape"><path d="M12.00439453125,7.801513671875C12.39697265625,3.933837890625,14.063720703125,2,17.0048828125,2C17.27490234375,2.81365966796875,17.3447265625,3.60150146484375,17.2138671875,4.363525390625C17.15234375,4.72515869140625,16.960205078125,5.24102783203125,16.637451171875,5.9110107421875M7.114501953125,13C6.97607421875,13.6729736328125,6.97607421875,14.3658447265625,7.114501953125,15.0784912109375C7.25244140625,15.79083251953125,7.546875,16.3408203125,7.998046875,16.728515625" style="fill: none; stroke-width: 2; stroke: rgb(255, 179, 67); stroke-opacity: 1;"/></g></g></g></g></g></svg>