<svg width="20" xmlns="http://www.w3.org/2000/svg" height="20" id="screenshot-109121c4-564b-8056-8006-a2c4df13bbf3" viewBox="0 0 20 20" xmlns:xlink="http://www.w3.org/1999/xlink" fill="none" version="1.1"><g id="shape-109121c4-564b-8056-8006-a2c4df13bbf3" width="16" height="16" rx="0" ry="0" style="fill: rgb(0, 0, 0);"><g id="shape-109121c4-564b-8056-8006-a2c4df13bbf4" style="display: none;"><g class="fills" id="fills-109121c4-564b-8056-8006-a2c4df13bbf4"><rect width="19.234972677595124" height="17.773547737764147" x="0" transform="matrix(1.000000, 0.000000, 0.000000, 1.000000, 0.000000, 0.000000)" style="fill: rgb(255, 179, 67); fill-opacity: 1;" ry="0" fill="none" rx="0" y="0"/></g><g fill="none" id="strokes-137368ce-643f-808e-8006-c5e02702c30c-109121c4-564b-8056-8006-a2c4df13bbf4" class="strokes"><g class="stroke-shape"><rect rx="0" ry="0" x="0" y="0" transform="matrix(1.000000, 0.000000, 0.000000, 1.000000, 0.000000, 0.000000)" width="19.234972677595124" height="17.773547737764147" style="fill: none; stroke-width: 0; stroke: rgb(255, 179, 67); stroke-opacity: 1;"/></g></g></g><g id="shape-109121c4-564b-8056-8006-a2c4df13bbf5"><g class="fills" id="fills-109121c4-564b-8056-8006-a2c4df13bbf5"><path d="M19.10791015625,4.60833740234375C17.893798828125,4.60821533203125,16.68994140625,4.7862548828125,15.55810546875,5.133056640625C13.961669921875,2.53570556640625,10.737060546875,1.2449951171875,10.589599609375,1.18701171875C10.3388671875,1.0885009765625,10.0439453125,1.0885009765625,9.792724609375,1.18701171875C9.643798828125,1.2449951171875,6.42138671875,2.53570556640625,4.8251953125,5.133056640625C3.693115234375,4.7862548828125,2.489013671875,4.60821533203125,1.27392578125,4.60833740234375C0.781982421875,4.60833740234375,0.3828125,4.9215087890625,0.3828125,5.30780029296875L0.3828125,12.30426025390625C0.3828125,16.55419921875,4.773681640625,19.99993896484375,10.191650390625,19.99993896484375C15.608154296875,19.99993896484375,19.999755859375,16.55419921875,19.999755859375,12.30426025390625L19.999755859375,5.30780029296875C19.999755859375,4.9215087890625,19.60107421875,4.60833740234375,19.10791015625,4.60833740234375M9.29931640625,18.5623779296875C5.2392578125,18.20196533203125,2.17041015625,15.509765625,2.16552734375,12.30426025390625L2.16552734375,10.94342041015625C6.22607421875,11.30352783203125,9.294921875,13.99603271484375,9.29931640625,17.20166015625L9.29931640625,18.5623779296875M9.29931640625,12.78155517578125C7.644287109375,10.93084716796875,5.0361328125,9.74456787109375,2.16552734375,9.53802490234375L2.16552734375,6.04595947265625C6.22607421875,6.40618896484375,9.294921875,9.09857177734375,9.29931640625,12.30426025390625L9.29931640625,12.78155517578125M6.41796875,5.754638671875C7.4462890625,4.07513427734375,9.36181640625,3.014892578125,10.191650390625,2.61505126953125C11.02099609375,3.01593017578125,12.93603515625,4.0755615234375,13.962890625,5.754638671875C12.31494140625,6.555419921875,11.0029296875,7.71856689453125,10.191650390625,9.0997314453125C9.380126953125,7.71844482421875,8.067138671875,6.55523681640625,6.41796875,5.754638671875M18.216552734375,12.30426025390625C18.211669921875,15.509765625,15.142822265625,18.20196533203125,11.083251953125,18.5623779296875L11.083251953125,17.20166015625C11.088134765625,13.99603271484375,14.156494140625,11.30352783203125,18.216552734375,10.94342041015625L18.216552734375,12.30426025390625M18.216552734375,9.53802490234375C15.346923828125,9.74456787109375,12.73828125,10.93084716796875,11.083251953125,12.78155517578125L11.083251953125,12.30426025390625C11.088134765625,9.09857177734375,14.156494140625,6.40618896484375,18.216552734375,6.04595947265625L18.216552734375,9.53802490234375" fill="2e2e2e" style="fill: rgb(255, 179, 67); fill-opacity: 1;"/></g><g fill="2e2e2e" id="strokes-137368ce-643f-808e-8006-c5e027041f58-109121c4-564b-8056-8006-a2c4df13bbf5" class="strokes"><g class="stroke-shape"><path d="M19.10791015625,4.60833740234375C17.893798828125,4.60821533203125,16.68994140625,4.7862548828125,15.55810546875,5.133056640625C13.961669921875,2.53570556640625,10.737060546875,1.2449951171875,10.589599609375,1.18701171875C10.3388671875,1.0885009765625,10.0439453125,1.0885009765625,9.792724609375,1.18701171875C9.643798828125,1.2449951171875,6.42138671875,2.53570556640625,4.8251953125,5.133056640625C3.693115234375,4.7862548828125,2.489013671875,4.60821533203125,1.27392578125,4.60833740234375C0.781982421875,4.60833740234375,0.3828125,4.9215087890625,0.3828125,5.30780029296875L0.3828125,12.30426025390625C0.3828125,16.55419921875,4.773681640625,19.99993896484375,10.191650390625,19.99993896484375C15.608154296875,19.99993896484375,19.999755859375,16.55419921875,19.999755859375,12.30426025390625L19.999755859375,5.30780029296875C19.999755859375,4.9215087890625,19.60107421875,4.60833740234375,19.10791015625,4.60833740234375M9.29931640625,18.5623779296875C5.2392578125,18.20196533203125,2.17041015625,15.509765625,2.16552734375,12.30426025390625L2.16552734375,10.94342041015625C6.22607421875,11.30352783203125,9.294921875,13.99603271484375,9.29931640625,17.20166015625L9.29931640625,18.5623779296875M9.29931640625,12.78155517578125C7.644287109375,10.93084716796875,5.0361328125,9.74456787109375,2.16552734375,9.53802490234375L2.16552734375,6.04595947265625C6.22607421875,6.40618896484375,9.294921875,9.09857177734375,9.29931640625,12.30426025390625L9.29931640625,12.78155517578125M6.41796875,5.754638671875C7.4462890625,4.07513427734375,9.36181640625,3.014892578125,10.191650390625,2.61505126953125C11.02099609375,3.01593017578125,12.93603515625,4.0755615234375,13.962890625,5.754638671875C12.31494140625,6.555419921875,11.0029296875,7.71856689453125,10.191650390625,9.0997314453125C9.380126953125,7.71844482421875,8.067138671875,6.55523681640625,6.41796875,5.754638671875M18.216552734375,12.30426025390625C18.211669921875,15.509765625,15.142822265625,18.20196533203125,11.083251953125,18.5623779296875L11.083251953125,17.20166015625C11.088134765625,13.99603271484375,14.156494140625,11.30352783203125,18.216552734375,10.94342041015625L18.216552734375,12.30426025390625M18.216552734375,9.53802490234375C15.346923828125,9.74456787109375,12.73828125,10.93084716796875,11.083251953125,12.78155517578125L11.083251953125,12.30426025390625C11.088134765625,9.09857177734375,14.156494140625,6.40618896484375,18.216552734375,6.04595947265625L18.216552734375,9.53802490234375" style="fill: none; stroke-width: 0; stroke: rgb(255, 179, 67); stroke-opacity: 1;"/></g></g></g></g></svg>