<svg width="24" xmlns="http://www.w3.org/2000/svg" height="24" id="screenshot-d6b70180-b30b-80d6-8006-a3206228be32" viewBox="0 0 24 24" xmlns:xlink="http://www.w3.org/1999/xlink" fill="none" version="1.1"><g id="shape-d6b70180-b30b-80d6-8006-a3206228be32" width="24" height="24" rx="0" ry="0" style="fill: rgb(0, 0, 0);"><g id="shape-d6b70180-b30b-80d6-8006-a320622cb65d" style="display: none;"><g class="fills" id="fills-d6b70180-b30b-80d6-8006-a320622cb65d"><rect width="24" height="24" x="0" transform="matrix(1.000000, 0.000000, 0.000000, 1.000000, 0.000000, 0.000000)" style="fill: rgb(255, 179, 67); fill-opacity: 1;" ry="0" fill="none" rx="0" y="0"/></g></g><g id="shape-d6b70180-b30b-80d6-8006-a320622d8f43"><g class="fills" id="fills-d6b70180-b30b-80d6-8006-a320622d8f43"><path d="M11,2L11,7L9,7L9,2ZM7,3L7,7L5,7L5,3ZM15,3L15,7L13,7L13,3ZM2.927001953125,8L21,8L21,13C21,15.209136962890625,19.209228515625,17,17,17L16.06689453125,17C15.529541015625,18.238357543945312,14.628662109375,19.284439086914062,13.48388671875,20L20,20L20,22L3,22L3,20L6.506103515625,20C4.74169921875,18.899887084960938,3.598876953125,17.032676696777344,3.422119140625,14.96099853515625L3.422119140625,14.954002380371094ZM16.574951171875,15L17,15C18.1044921875,15,19,14.104568481445312,19,13L19,10L16.931884765625,10L16.5791015625,14.954002380371094L16.5791015625,14.96099853515625ZM14.927001953125,10L5.073974609375,10L5.4150390625,14.7969970703125C5.622314453125,17.174880981445312,7.613037109375,18.99969482421875,10,19C12.05908203125,19,13.8359375,17.62000274658203,14.412109375,15.71099853515625C14.501953125,15.416000366210938,14.556884765625,15.124000549316406,14.5849609375,14.7969970703125Z" fill="2e2e2e" style="fill: rgb(255, 179, 67); fill-opacity: 1;"/></g></g></g></svg>