<svg width="24" xmlns="http://www.w3.org/2000/svg" height="24" id="screenshot-0f36e605-33ff-80fb-8006-d75e46877991" viewBox="0 0 24 24" xmlns:xlink="http://www.w3.org/1999/xlink" fill="none" version="1.1"><g id="shape-0f36e605-33ff-80fb-8006-d75e46877991" width="24" height="24" rx="0" ry="0" style="fill: rgb(0, 0, 0);"><g id="shape-0f36e605-33ff-80fb-8006-d75e468a092d" style="display: none;"><g class="fills" id="fills-0f36e605-33ff-80fb-8006-d75e468a092d"><rect width="24" height="24" x="0" transform="matrix(1.000000, 0.000000, 0.000000, 1.000000, 0.000000, 0.000000)" style="fill: none;" ry="0" fill="none" rx="0" y="0"/></g><g fill="none" id="strokes-3b9e2cd8-cf39-80e5-8006-d75eedd3558a-0f36e605-33ff-80fb-8006-d75e468a092d" class="strokes"><g class="inner-stroke-shape" transform="matrix(1.000000, 0.000000, 0.000000, 1.000000, 0.000000, 0.000000)"><defs><clipPath id="inner-stroke-render-2-0f36e605-33ff-80fb-8006-d75e468a092d-0"><use href="#stroke-shape-render-2-0f36e605-33ff-80fb-8006-d75e468a092d-0"/></clipPath><rect rx="0" ry="0" x="0" y="0" width="24" height="24" id="stroke-shape-render-2-0f36e605-33ff-80fb-8006-d75e468a092d-0" style="fill: none; stroke-width: 2; stroke: rgb(243, 243, 243); stroke-opacity: 1;"/></defs><use href="#stroke-shape-render-2-0f36e605-33ff-80fb-8006-d75e468a092d-0" clip-path="url('#inner-stroke-render-2-0f36e605-33ff-80fb-8006-d75e468a092d-0')"/></g></g></g><g id="shape-0f36e605-33ff-80fb-8006-d75e468a690f"><g class="fills" id="fills-0f36e605-33ff-80fb-8006-d75e468a690f"><path d="M11,10L14,13L16,11L16,18L9,18L11,16L8,13Z" fill="2e2e2e" style="fill: rgb(201, 200, 199); fill-opacity: 1;"/></g><g fill="2e2e2e" id="strokes-3b9e2cd8-cf39-80e5-8006-d75eedd4558c-0f36e605-33ff-80fb-8006-d75e468a690f" class="strokes"><g class="inner-stroke-shape"><defs><clipPath id="inner-stroke-render-3-0f36e605-33ff-80fb-8006-d75e468a690f-0"><use href="#stroke-shape-render-3-0f36e605-33ff-80fb-8006-d75e468a690f-0"/></clipPath><path d="M11,10L14,13L16,11L16,18L9,18L11,16L8,13Z" id="stroke-shape-render-3-0f36e605-33ff-80fb-8006-d75e468a690f-0" style="fill: none; stroke-width: 2; stroke: rgb(201, 200, 199); stroke-opacity: 1;"/></defs><use href="#stroke-shape-render-3-0f36e605-33ff-80fb-8006-d75e468a690f-0" clip-path="url('#inner-stroke-render-3-0f36e605-33ff-80fb-8006-d75e468a690f-0')"/></g></g></g><g id="shape-0f36e605-33ff-80fb-8006-d75e468a6910" rx="0" ry="0" style="fill: rgb(0, 0, 0);"><g id="shape-0f36e605-33ff-80fb-8006-d75e468ab896"><g class="fills" id="fills-0f36e605-33ff-80fb-8006-d75e468ab896"><path d="M13.5,3L19,8.5L19,20C19,20.550003051757812,18.550048828125,21,18,21L6,21C5.449951171875,21,5,20.550003051757812,5,20L5,4C5,3.4499969482421875,5.449951171875,3,6,3L13.5,3" stroke="2e2e2e" fill="none" stroke-linejoin="round" stroke-linecap="round" stroke-width="2" style="fill: none;"/></g><g stroke="2e2e2e" fill="none" stroke-linejoin="round" stroke-linecap="round" stroke-width="2" id="strokes-3b9e2cd8-cf39-80e5-8006-d75eedd51c1f-0f36e605-33ff-80fb-8006-d75e468ab896" class="strokes"><g class="inner-stroke-shape"><defs><clipPath id="inner-stroke-render-5-0f36e605-33ff-80fb-8006-d75e468ab896-0"><use href="#stroke-shape-render-5-0f36e605-33ff-80fb-8006-d75e468ab896-0"/></clipPath><path d="M13.5,3L19,8.5L19,20C19,20.550003051757812,18.550048828125,21,18,21L6,21C5.449951171875,21,5,20.550003051757812,5,20L5,4C5,3.4499969482421875,5.449951171875,3,6,3L13.5,3" id="stroke-shape-render-5-0f36e605-33ff-80fb-8006-d75e468ab896-0" style="fill: none; stroke-width: 2; stroke: rgb(201, 200, 199); stroke-opacity: 1;"/></defs><use href="#stroke-shape-render-5-0f36e605-33ff-80fb-8006-d75e468ab896-0" clip-path="url('#inner-stroke-render-5-0f36e605-33ff-80fb-8006-d75e468ab896-0')"/></g></g></g><g id="shape-0f36e605-33ff-80fb-8006-d75e468ab897"><g class="fills" id="fills-0f36e605-33ff-80fb-8006-d75e468ab897"><path d="M13.5,4L13.5,8.5L18,8.5Z" stroke="2e2e2e" fill="none" stroke-linejoin="round" stroke-linecap="round" stroke-width="2" style="fill: none;"/></g><g stroke="2e2e2e" fill="none" stroke-linejoin="round" stroke-linecap="round" stroke-width="2" id="strokes-3b9e2cd8-cf39-80e5-8006-d75eedd5ba27-0f36e605-33ff-80fb-8006-d75e468ab897" class="strokes"><g class="inner-stroke-shape"><defs><clipPath id="inner-stroke-render-6-0f36e605-33ff-80fb-8006-d75e468ab897-0"><use href="#stroke-shape-render-6-0f36e605-33ff-80fb-8006-d75e468ab897-0"/></clipPath><path d="M13.5,4L13.5,8.5L18,8.5Z" id="stroke-shape-render-6-0f36e605-33ff-80fb-8006-d75e468ab897-0" style="fill: none; stroke-width: 2; stroke: rgb(201, 200, 199); stroke-opacity: 1;"/></defs><use href="#stroke-shape-render-6-0f36e605-33ff-80fb-8006-d75e468ab897-0" clip-path="url('#inner-stroke-render-6-0f36e605-33ff-80fb-8006-d75e468ab897-0')"/></g></g></g></g></g></svg>