<svg width="24" xmlns="http://www.w3.org/2000/svg" height="24" id="screenshot-109121c4-564b-8056-8006-a2ba65eab06f" viewBox="0 0 24 24" xmlns:xlink="http://www.w3.org/1999/xlink" fill="none" version="1.1"><g id="shape-109121c4-564b-8056-8006-a2ba65eab06f" width="24" height="24" rx="0" ry="0" style="fill: rgb(0, 0, 0);"><g id="shape-109121c4-564b-8056-8006-a2ba65eb311c" style="display: none;"><g class="fills" id="fills-109121c4-564b-8056-8006-a2ba65eb311c"><rect width="24" height="24" x="0" transform="matrix(1.000000, 0.000000, 0.000000, 1.000000, 0.000000, 0.000000)" style="fill: none;" ry="0" fill="none" rx="0" y="0"/></g><g fill="none" id="strokes-f3c80e00-eeac-8044-8006-c5e0ca363a93-109121c4-564b-8056-8006-a2ba65eb311c" class="strokes"><g class="inner-stroke-shape" transform="matrix(1.000000, 0.000000, 0.000000, 1.000000, 0.000000, 0.000000)"><defs><clipPath id="inner-stroke-render-2-109121c4-564b-8056-8006-a2ba65eb311c-0"><use href="#stroke-shape-render-2-109121c4-564b-8056-8006-a2ba65eb311c-0"/></clipPath><rect rx="0" ry="0" x="0" y="0" width="24" height="24" id="stroke-shape-render-2-109121c4-564b-8056-8006-a2ba65eb311c-0" style="fill: none; stroke-width: 4; stroke: rgb(255, 179, 67); stroke-opacity: 1;"/></defs><use href="#stroke-shape-render-2-109121c4-564b-8056-8006-a2ba65eb311c-0" clip-path="url('#inner-stroke-render-2-109121c4-564b-8056-8006-a2ba65eb311c-0')"/></g></g></g><g id="shape-109121c4-564b-8056-8006-a2ba65eb7d4f" rx="0" ry="0" style="fill: rgb(0, 0, 0);"><g id="shape-109121c4-564b-8056-8006-a2ba65eb7d50"><g class="fills" id="fills-109121c4-564b-8056-8006-a2ba65eb7d50"><path d="M13.6201171875,8.38201904296875L15.5859375,6.41497802734375C14.94580078125,5.7750244140625,14.8154296875,4.784912109375,15.267578125,4.00091552734375C15.72021484375,3.2169189453125,16.642822265625,2.83453369140625,17.51708984375,3.068603515625C18.3916015625,3.30267333984375,18.999755859375,4.0948486328125,19,5C19.9052734375,4.99932861328125,20.6982421875,5.6070556640625,20.93310546875,6.4815673828125C21.167724609375,7.35601806640625,20.78564453125,8.27911376953125,20.001708984375,8.73193359375C19.2177734375,9.18475341796875,18.22705078125,9.0543212890625,17.5869140625,8.41400146484375L15.76708984375,10.2349853515625M5.904052734375,18.59600830078125C8.636962890625,21.33001708984375,11.803955078125,22.59600830078125,12.97412109375,21.42498779296875C14.14599609375,20.25299072265625,12.8798828125,17.08697509765625,10.14599609375,14.35400390625C7.4130859375,11.6199951171875,4.24609375,10.35400390625,3.076171875,11.5250244140625C1.904052734375,12.697021484375,3.169921875,15.86297607421875,5.904052734375,18.59600830078125M7.5,16L8.5,17" stroke="2e2e2e" fill="none" stroke-linejoin="round" stroke-linecap="round" stroke-width="2" style="fill: none;"/></g><g stroke="2e2e2e" fill="none" stroke-linejoin="round" stroke-linecap="round" stroke-width="2" id="strokes-f3c80e00-eeac-8044-8006-c5e0ca374fb9-109121c4-564b-8056-8006-a2ba65eb7d50" class="strokes"><g class="stroke-shape"><path d="M13.6201171875,8.38201904296875L15.5859375,6.41497802734375C14.94580078125,5.7750244140625,14.8154296875,4.784912109375,15.267578125,4.00091552734375C15.72021484375,3.2169189453125,16.642822265625,2.83453369140625,17.51708984375,3.068603515625C18.3916015625,3.30267333984375,18.999755859375,4.0948486328125,19,5C19.9052734375,4.99932861328125,20.6982421875,5.6070556640625,20.93310546875,6.4815673828125C21.167724609375,7.35601806640625,20.78564453125,8.27911376953125,20.001708984375,8.73193359375C19.2177734375,9.18475341796875,18.22705078125,9.0543212890625,17.5869140625,8.41400146484375L15.76708984375,10.2349853515625M5.904052734375,18.59600830078125C8.636962890625,21.33001708984375,11.803955078125,22.59600830078125,12.97412109375,21.42498779296875C14.14599609375,20.25299072265625,12.8798828125,17.08697509765625,10.14599609375,14.35400390625C7.4130859375,11.6199951171875,4.24609375,10.35400390625,3.076171875,11.5250244140625C1.904052734375,12.697021484375,3.169921875,15.86297607421875,5.904052734375,18.59600830078125M7.5,16L8.5,17" style="fill: none; stroke-width: 2; stroke: rgb(255, 179, 67); stroke-opacity: 1;"/></g></g></g><g id="shape-109121c4-564b-8056-8006-a2ba65eb9082"><g class="fills" id="fills-109121c4-564b-8056-8006-a2ba65eb9082"><path d="M12.97509765625,21.42498779296875C16.8798828125,17.51898193359375,17.830078125,12.13702392578125,15.095947265625,9.40399169921875C12.363037109375,6.66998291015625,6.98095703125,7.6199951171875,3.076171875,11.5250244140625" stroke="2e2e2e" fill="none" stroke-linejoin="round" stroke-linecap="round" stroke-width="2" style="fill: none;"/></g><g stroke="2e2e2e" fill="none" stroke-linejoin="round" stroke-linecap="round" stroke-width="2" id="strokes-f3c80e00-eeac-8044-8006-c5e0ca37c212-109121c4-564b-8056-8006-a2ba65eb9082" class="strokes"><g class="stroke-shape"><path d="M12.97509765625,21.42498779296875C16.8798828125,17.51898193359375,17.830078125,12.13702392578125,15.095947265625,9.40399169921875C12.363037109375,6.66998291015625,6.98095703125,7.6199951171875,3.076171875,11.5250244140625" style="fill: none; stroke-width: 2; stroke: rgb(255, 179, 67); stroke-opacity: 1;"/></g></g></g></g></g></svg>