<svg width="24" xmlns="http://www.w3.org/2000/svg" height="24" id="screenshot-50ad53ec-08cb-80c7-8006-a2999d6e6f81" viewBox="0 0 24 24" xmlns:xlink="http://www.w3.org/1999/xlink" fill="none" version="1.1"><g id="shape-50ad53ec-08cb-80c7-8006-a2999d6e6f81" width="32" height="32" rx="0" ry="0" style="fill: rgb(0, 0, 0);"><g id="shape-50ad53ec-08cb-80c7-8006-a2999d6e6f85" style="display: none;"><g class="fills" id="fills-50ad53ec-08cb-80c7-8006-a2999d6e6f85"><rect width="24" height="24" x="0" stroke-width="2" transform="matrix(1.000000, 0.000000, 0.000000, 1.000000, 0.000000, 0.000000)" style="fill: none;" ry="0" fill="none" rx="0" y="0" color="#000"/></g></g><g id="shape-50ad53ec-08cb-80c7-8006-a2999d6e6f86"><g class="fills" id="fills-50ad53ec-08cb-80c7-8006-a2999d6e6f86"><path d="M20,12.5C20.276123046875,12.5,20.5,12.276123046875,20.5,12C20.5,11.72393798828125,20.276123046875,11.5,20,11.5C19.723876953125,11.5,19.5,11.72393798828125,19.5,12C19.5,12.276123046875,19.723876953125,12.5,20,12.5Z" color="#000" stroke-linecap="round" stroke-linejoin="round" style="fill: rgb(0, 0, 0);"/></g><g color="#000" stroke-linecap="round" stroke-linejoin="round" id="strokes-a06da292-7a46-8068-8006-bedd6f07bd82-50ad53ec-08cb-80c7-8006-a2999d6e6f86" class="strokes"><g class="stroke-shape"><path d="M20,12.5C20.276123046875,12.5,20.5,12.276123046875,20.5,12C20.5,11.72393798828125,20.276123046875,11.5,20,11.5C19.723876953125,11.5,19.5,11.72393798828125,19.5,12C19.5,12.276123046875,19.723876953125,12.5,20,12.5Z" style="fill: none; stroke-width: 2; stroke: rgb(0, 0, 0); stroke-opacity: 1;"/></g></g></g><g id="shape-50ad53ec-08cb-80c7-8006-a2999d6e6f87"><g class="fills" id="fills-50ad53ec-08cb-80c7-8006-a2999d6e6f87"><path d="M12,12.5C12.276123046875,12.5,12.5,12.276123046875,12.5,12C12.5,11.72393798828125,12.276123046875,11.5,12,11.5C11.723876953125,11.5,11.5,11.72393798828125,11.5,12C11.5,12.276123046875,11.723876953125,12.5,12,12.5Z" color="#000" stroke-linecap="round" stroke-linejoin="round" style="fill: rgb(0, 0, 0);"/></g><g color="#000" stroke-linecap="round" stroke-linejoin="round" id="strokes-a06da292-7a46-8068-8006-bedd6f085f8e-50ad53ec-08cb-80c7-8006-a2999d6e6f87" class="strokes"><g class="stroke-shape"><path d="M12,12.5C12.276123046875,12.5,12.5,12.276123046875,12.5,12C12.5,11.72393798828125,12.276123046875,11.5,12,11.5C11.723876953125,11.5,11.5,11.72393798828125,11.5,12C11.5,12.276123046875,11.723876953125,12.5,12,12.5Z" style="fill: none; stroke-width: 2; stroke: rgb(0, 0, 0); stroke-opacity: 1;"/></g></g></g><g id="shape-50ad53ec-08cb-80c7-8006-a2999d6e6f88"><g class="fills" id="fills-50ad53ec-08cb-80c7-8006-a2999d6e6f88"><path d="M4,12.5C4.276123046875,12.5,4.5,12.276123046875,4.5,12C4.5,11.72393798828125,4.276123046875,11.5,4,11.5C3.723876953125,11.5,3.5,11.72393798828125,3.5,12C3.5,12.276123046875,3.723876953125,12.5,4,12.5Z" color="#000" stroke-linecap="round" stroke-linejoin="round" style="fill: rgb(0, 0, 0);"/></g><g color="#000" stroke-linecap="round" stroke-linejoin="round" id="strokes-a06da292-7a46-8068-8006-bedd6f08cd97-50ad53ec-08cb-80c7-8006-a2999d6e6f88" class="strokes"><g class="stroke-shape"><path d="M4,12.5C4.276123046875,12.5,4.5,12.276123046875,4.5,12C4.5,11.72393798828125,4.276123046875,11.5,4,11.5C3.723876953125,11.5,3.5,11.72393798828125,3.5,12C3.5,12.276123046875,3.723876953125,12.5,4,12.5Z" style="fill: none; stroke-width: 2; stroke: rgb(0, 0, 0); stroke-opacity: 1;"/></g></g></g></g></svg>