<svg width="24" xmlns="http://www.w3.org/2000/svg" height="24" id="screenshot-109121c4-564b-8056-8006-a2b567b94b9c" viewBox="0 0 24 24" xmlns:xlink="http://www.w3.org/1999/xlink" fill="none" version="1.1"><g id="shape-109121c4-564b-8056-8006-a2b567b94b9c" width="64" height="64" rx="0" ry="0" style="fill: rgb(0, 0, 0);"><g id="shape-109121c4-564b-8056-8006-a2b567b94ba7" style="display: none;"><g class="fills" id="fills-109121c4-564b-8056-8006-a2b567b94ba7"><rect width="24" height="24" x="0" stroke-width="2" transform="matrix(1.000000, 0.000000, 0.000000, 1.000000, 0.000000, 0.000000)" style="fill: none;" ry="0" fill="none" rx="0" y="0" color="#252525"/></g></g><g id="shape-109121c4-564b-8056-8006-a2b567b94ba8"><g class="fills" id="fills-109121c4-564b-8056-8006-a2b567b94ba8"><path d="M12,12.5C12.276123046875,12.5,12.5,12.276123046875,12.5,12C12.5,11.723876953125,12.276123046875,11.5,12,11.5C11.723876953125,11.5,11.5,11.723876953125,11.5,12C11.5,12.276123046875,11.723876953125,12.5,12,12.5Z" color="#252525" stroke-linecap="round" stroke-linejoin="round" style="fill: rgb(37, 37, 37);"/></g><g color="#252525" stroke-linecap="round" stroke-linejoin="round" id="strokes-98e34d60-470f-80f9-8006-d36c04730c3c-109121c4-564b-8056-8006-a2b567b94ba8" class="strokes"><g class="stroke-shape"><path d="M12,12.5C12.276123046875,12.5,12.5,12.276123046875,12.5,12C12.5,11.723876953125,12.276123046875,11.5,12,11.5C11.723876953125,11.5,11.5,11.723876953125,11.5,12C11.5,12.276123046875,11.723876953125,12.5,12,12.5Z" style="fill: none; stroke-width: 2; stroke: rgb(37, 37, 37); stroke-opacity: 1;"/></g></g></g><g id="shape-109121c4-564b-8056-8006-a2b567b94ba9"><g class="fills" id="fills-109121c4-564b-8056-8006-a2b567b94ba9"><path d="M12,20.5C12.276123046875,20.5,12.5,20.276123046875,12.5,20C12.5,19.723876953125,12.276123046875,19.5,12,19.5C11.723876953125,19.5,11.5,19.723876953125,11.5,20C11.5,20.276123046875,11.723876953125,20.5,12,20.5Z" color="#252525" stroke-linecap="round" stroke-linejoin="round" style="fill: rgb(37, 37, 37);"/></g><g color="#252525" stroke-linecap="round" stroke-linejoin="round" id="strokes-98e34d60-470f-80f9-8006-d36c0473cf63-109121c4-564b-8056-8006-a2b567b94ba9" class="strokes"><g class="stroke-shape"><path d="M12,20.5C12.276123046875,20.5,12.5,20.276123046875,12.5,20C12.5,19.723876953125,12.276123046875,19.5,12,19.5C11.723876953125,19.5,11.5,19.723876953125,11.5,20C11.5,20.276123046875,11.723876953125,20.5,12,20.5Z" style="fill: none; stroke-width: 2; stroke: rgb(37, 37, 37); stroke-opacity: 1;"/></g></g></g><g id="shape-109121c4-564b-8056-8006-a2b567b94baa"><g class="fills" id="fills-109121c4-564b-8056-8006-a2b567b94baa"><path d="M12,4.5C12.276123046875,4.5,12.5,4.276123046875,12.5,4C12.5,3.723876953125,12.276123046875,3.5,12,3.5C11.723876953125,3.5,11.5,3.723876953125,11.5,4C11.5,4.276123046875,11.723876953125,4.5,12,4.5Z" color="#252525" stroke-linecap="round" stroke-linejoin="round" style="fill: rgb(37, 37, 37);"/></g><g color="#252525" stroke-linecap="round" stroke-linejoin="round" id="strokes-98e34d60-470f-80f9-8006-d36c0474350e-109121c4-564b-8056-8006-a2b567b94baa" class="strokes"><g class="stroke-shape"><path d="M12,4.5C12.276123046875,4.5,12.5,4.276123046875,12.5,4C12.5,3.723876953125,12.276123046875,3.5,12,3.5C11.723876953125,3.5,11.5,3.723876953125,11.5,4C11.5,4.276123046875,11.723876953125,4.5,12,4.5Z" style="fill: none; stroke-width: 2; stroke: rgb(37, 37, 37); stroke-opacity: 1;"/></g></g></g></g></svg>