<svg width="198" xmlns="http://www.w3.org/2000/svg" height="198" id="screenshot-5cc8d2c4-ad46-8091-8006-a2932b38c0bf" viewBox="0 0 198 198" xmlns:xlink="http://www.w3.org/1999/xlink" fill="none" version="1.1"><g id="shape-5cc8d2c4-ad46-8091-8006-a2932b38c0bf" width="64" height="64" rx="0" ry="0" style="fill: rgb(0, 0, 0);"><g id="shape-5cc8d2c4-ad46-8091-8006-a2932b39c40f" style="display: none;"><g class="fills" id="fills-5cc8d2c4-ad46-8091-8006-a2932b39c40f"><rect width="198" height="198" x="0" stroke-width="3" transform="matrix(1.000000, 0.000000, 0.000000, 1.000000, 0.000000, 0.000000)" style="fill: none;" ry="0" fill="none" rx="0" y="0" color="#000"/></g><g color="#000" fill="none" stroke-width="3" id="strokes-42c7b25e-6728-80de-8006-bee0005e1f4a-5cc8d2c4-ad46-8091-8006-a2932b39c40f" class="strokes"><g class="inner-stroke-shape" transform="matrix(1.000000, 0.000000, 0.000000, 1.000000, 0.000000, 0.000000)"><defs><clipPath id="inner-stroke-render-2-5cc8d2c4-ad46-8091-8006-a2932b39c40f-0"><use href="#stroke-shape-render-2-5cc8d2c4-ad46-8091-8006-a2932b39c40f-0"/></clipPath><rect rx="0" ry="0" x="0" y="0" width="198" height="198" id="stroke-shape-render-2-5cc8d2c4-ad46-8091-8006-a2932b39c40f-0" style="fill: none; stroke-width: 20; stroke: rgb(255, 179, 67); stroke-opacity: 1;"/></defs><use href="#stroke-shape-render-2-5cc8d2c4-ad46-8091-8006-a2932b39c40f-0" clip-path="url('#inner-stroke-render-2-5cc8d2c4-ad46-8091-8006-a2932b39c40f-0')"/></g></g></g><g id="shape-5cc8d2c4-ad46-8091-8006-a2932b3a729f"><g class="fills" id="fills-5cc8d2c4-ad46-8091-8006-a2932b3a729f"><path d="M161.40625,176.69061279296875C168.226318359375,176.69061279296875,173.78125,171.14495849609375,173.78125,164.31561279296875C173.78125,157.47686767578125,168.226318359375,151.94061279296875,161.40625,151.94061279296875C154.586181640625,151.94061279296875,149.03125,157.47686767578125,149.03125,164.31561279296875C149.03125,171.14495849609375,154.586181640625,176.69061279296875,161.40625,176.69061279296875L161.40625,176.69061279296875" color="#000" stroke-linecap="round" stroke-linejoin="round" style="fill: rgb(255, 179, 67); fill-opacity: 1;"/></g><g color="#000" stroke-linecap="round" stroke-linejoin="round" id="strokes-42c7b25e-6728-80de-8006-bee0005f2cd4-5cc8d2c4-ad46-8091-8006-a2932b3a729f" class="strokes"><g class="inner-stroke-shape"><defs><clipPath id="inner-stroke-render-3-5cc8d2c4-ad46-8091-8006-a2932b3a729f-0"><use href="#stroke-shape-render-3-5cc8d2c4-ad46-8091-8006-a2932b3a729f-0"/></clipPath><path d="M161.40625,176.69061279296875C168.226318359375,176.69061279296875,173.78125,171.14495849609375,173.78125,164.31561279296875C173.78125,157.47686767578125,168.226318359375,151.94061279296875,161.40625,151.94061279296875C154.586181640625,151.94061279296875,149.03125,157.47686767578125,149.03125,164.31561279296875C149.03125,171.14495849609375,154.586181640625,176.69061279296875,161.40625,176.69061279296875L161.40625,176.69061279296875" id="stroke-shape-render-3-5cc8d2c4-ad46-8091-8006-a2932b3a729f-0" style="fill: none; stroke-width: 20; stroke: rgb(255, 179, 67); stroke-opacity: 1;"/></defs><use href="#stroke-shape-render-3-5cc8d2c4-ad46-8091-8006-a2932b3a729f-0" clip-path="url('#inner-stroke-render-3-5cc8d2c4-ad46-8091-8006-a2932b3a729f-0')"/></g></g></g><g id="shape-5cc8d2c4-ad46-8091-8006-a2932b3a8319"><g class="fills" id="fills-5cc8d2c4-ad46-8091-8006-a2932b3a8319"><path d="M61.346923828125,176.69061279296875C68.204345703125,176.69061279296875,73.721923828125,171.14495849609375,73.721923828125,164.31561279296875C73.721923828125,157.47686767578125,68.204345703125,151.94061279296875,61.346923828125,151.94061279296875C54.52685546875,151.94061279296875,48.971923828125,157.47686767578125,48.971923828125,164.31561279296875C48.971923828125,171.14495849609375,54.52685546875,176.69061279296875,61.346923828125,176.69061279296875Z" color="#000" stroke-linecap="round" stroke-linejoin="round" style="fill: rgb(255, 179, 67); fill-opacity: 1;"/></g><g color="#000" stroke-linecap="round" stroke-linejoin="round" id="strokes-42c7b25e-6728-80de-8006-bee0005fa634-5cc8d2c4-ad46-8091-8006-a2932b3a8319" class="strokes"><g class="inner-stroke-shape"><defs><clipPath id="inner-stroke-render-4-5cc8d2c4-ad46-8091-8006-a2932b3a8319-0"><use href="#stroke-shape-render-4-5cc8d2c4-ad46-8091-8006-a2932b3a8319-0"/></clipPath><path d="M61.346923828125,176.69061279296875C68.204345703125,176.69061279296875,73.721923828125,171.14495849609375,73.721923828125,164.31561279296875C73.721923828125,157.47686767578125,68.204345703125,151.94061279296875,61.346923828125,151.94061279296875C54.52685546875,151.94061279296875,48.971923828125,157.47686767578125,48.971923828125,164.31561279296875C48.971923828125,171.14495849609375,54.52685546875,176.69061279296875,61.346923828125,176.69061279296875Z" id="stroke-shape-render-4-5cc8d2c4-ad46-8091-8006-a2932b3a8319-0" style="fill: none; stroke-width: 20; stroke: rgb(255, 179, 67); stroke-opacity: 1;"/></defs><use href="#stroke-shape-render-4-5cc8d2c4-ad46-8091-8006-a2932b3a8319-0" clip-path="url('#inner-stroke-render-4-5cc8d2c4-ad46-8091-8006-a2932b3a8319-0')"/></g></g></g><g id="shape-5cc8d2c4-ad46-8091-8006-a2932b3aec1b"><g class="fills" id="fills-5cc8d2c4-ad46-8091-8006-a2932b3aec1b"><path d="M136.125,33.00311279296875L181.512451171875,33.00311279296875L164.987548828125,123.75L127.862548828125,123.75M136.125,33.00311279296875L127.862548828125,123.75M136.125,33.00311279296875L88.699951171875,33.00311279296875M127.862548828125,123.75L94.887451171875,123.75M88.699951171875,33.00311279296875L41.237548828125,33.00311279296875L57.762451171875,123.75L94.887451171875,123.75M88.699951171875,33.00311279296875L94.887451171875,123.75" color="#000" fill="none" stroke-linecap="round" stroke-linejoin="round" style="fill: none;"/></g><g color="#000" fill="none" stroke-linecap="round" stroke-linejoin="round" id="strokes-42c7b25e-6728-80de-8006-bee000600730-5cc8d2c4-ad46-8091-8006-a2932b3aec1b" class="strokes"><g class="stroke-shape"><path d="M136.125,33.00311279296875L181.512451171875,33.00311279296875L164.987548828125,123.75L127.862548828125,123.75M136.125,33.00311279296875L127.862548828125,123.75M136.125,33.00311279296875L88.699951171875,33.00311279296875M127.862548828125,123.75L94.887451171875,123.75M88.699951171875,33.00311279296875L41.237548828125,33.00311279296875L57.762451171875,123.75L94.887451171875,123.75M88.699951171875,33.00311279296875L94.887451171875,123.75" style="fill: none; stroke-width: 10; stroke: rgb(255, 179, 67); stroke-opacity: 1;"/></g></g></g><g id="shape-5cc8d2c4-ad46-8091-8006-a2932b3aec1c"><g class="fills" id="fills-5cc8d2c4-ad46-8091-8006-a2932b3aec1c"><path d="M41.237548828125,33.00311279296875C39.87890625,27.504150390625,33.012451171875,16.49688720703125,16.487548828125,16.49688720703125" color="#000" fill="none" stroke-linecap="round" stroke-linejoin="round" style="fill: none;"/></g><g color="#000" fill="none" stroke-linecap="round" stroke-linejoin="round" id="strokes-42c7b25e-6728-80de-8006-bee00060aa55-5cc8d2c4-ad46-8091-8006-a2932b3aec1c" class="strokes"><g class="stroke-shape"><path d="M41.237548828125,33.00311279296875C39.87890625,27.504150390625,33.012451171875,16.49688720703125,16.487548828125,16.49688720703125" style="fill: none; stroke-width: 10; stroke: rgb(255, 179, 67); stroke-opacity: 1;"/></g></g></g><g id="shape-5cc8d2c4-ad46-8091-8006-a2932b3aec1d"><g class="fills" id="fills-5cc8d2c4-ad46-8091-8006-a2932b3aec1d"><path d="M164.987548828125,123.75L57.762451171875,123.75L43.164306640625,123.75C28.426025390625,123.75,20.637451171875,130.19207763671875,20.637451171875,140.24688720703125C20.637451171875,150.30169677734375,28.426025390625,156.75311279296875,43.164306640625,156.75311279296875L160.875,156.75311279296875" color="#000" fill="none" stroke-linecap="round" stroke-linejoin="round" style="fill: none;"/></g><g color="#000" fill="none" stroke-linecap="round" stroke-linejoin="round" id="strokes-42c7b25e-6728-80de-8006-bee000610008-5cc8d2c4-ad46-8091-8006-a2932b3aec1d" class="strokes"><g class="stroke-shape"><path d="M164.987548828125,123.75L57.762451171875,123.75L43.164306640625,123.75C28.426025390625,123.75,20.637451171875,130.19207763671875,20.637451171875,140.24688720703125C20.637451171875,150.30169677734375,28.426025390625,156.75311279296875,43.164306640625,156.75311279296875L160.875,156.75311279296875" style="fill: none; stroke-width: 10; stroke: rgb(255, 179, 67); stroke-opacity: 1;"/></g></g></g></g></svg>