<svg width="24" xmlns="http://www.w3.org/2000/svg" height="24" id="screenshot-109121c4-564b-8056-8006-a2bbac65ecde" viewBox="0 0 24 24" xmlns:xlink="http://www.w3.org/1999/xlink" fill="none" version="1.1"><g id="shape-109121c4-564b-8056-8006-a2bbac65ecde" width="24" height="24" rx="0" ry="0" style="fill: rgb(0, 0, 0);"><g id="shape-109121c4-564b-8056-8006-a2bbac664feb" style="display: none;"><g class="fills" id="fills-109121c4-564b-8056-8006-a2bbac664feb"><rect width="24" height="24" x="0" transform="matrix(1.000000, 0.000000, 0.000000, 1.000000, 0.000000, 0.000000)" style="fill: rgb(255, 179, 67); fill-opacity: 1;" ry="0" fill="none" rx="0" y="0"/></g></g><g id="shape-109121c4-564b-8056-8006-a2bbac66acbc"><g class="fills" id="fills-109121c4-564b-8056-8006-a2bbac66acbc"><path d="M5.5,9C6.328369140625,9,7,8.328369140625,7,7.5C7,6.671630859375,6.328369140625,6,5.5,6C4.671630859375,6,4,6.671630859375,4,7.5C4,8.328369140625,4.671630859375,9,5.5,9M17.409912109375,11.5799560546875C17.77001953125,11.93994140625,18,12.43994140625,18,13C18,13.550048828125,17.780029296875,14.050048828125,17.409912109375,14.4100341796875L12.409912109375,19.4100341796875C12.035400390625,19.7864990234375,11.526123046875,19.998291015625,10.9951171875,19.998291015625C10.4638671875,19.998291015625,9.95458984375,19.7864990234375,9.580078125,19.4100341796875L2.590087890625,12.4200439453125C2.219970703125,12.050048828125,2,11.550048828125,2,11L2,6C2,4.8900146484375,2.889892578125,4,4,4L9,4C9.550048828125,4,10.050048828125,4.219970703125,10.409912109375,4.5799560546875ZM13.5400390625,5.7099609375L14.5400390625,4.7099609375L21.409912109375,11.5799560546875C21.780029296875,11.93994140625,22,12.449951171875,22,13C22,13.550048828125,21.780029296875,14.050048828125,21.419921875,14.4100341796875L16.0400390625,19.7900390625L15.0400390625,18.7900390625L20.75,13Z" fill="2e2e2e" style="fill: rgb(255, 179, 67); fill-opacity: 1;"/></g></g></g></svg>