<svg width="24" xmlns="http://www.w3.org/2000/svg" height="24" id="screenshot-109121c4-564b-8056-8006-a2bd771ca239" viewBox="0 0 24 24" xmlns:xlink="http://www.w3.org/1999/xlink" fill="none" version="1.1"><g id="shape-109121c4-564b-8056-8006-a2bd771ca239" width="24" height="24" rx="0" ry="0" style="fill: rgb(0, 0, 0);"><g id="shape-109121c4-564b-8056-8006-a2bd771e2f48" style="display: none;"><g class="fills" id="fills-109121c4-564b-8056-8006-a2bd771e2f48"><rect width="24" height="24" x="0" transform="matrix(1.000000, 0.000000, 0.000000, 1.000000, 0.000000, 0.000000)" style="fill: rgb(255, 179, 67); fill-opacity: 1;" ry="0" fill="none" rx="0" y="0"/></g></g><g id="shape-109121c4-564b-8056-8006-a2bd771f35a8"><g class="fills" id="fills-109121c4-564b-8056-8006-a2bd771f35a8"><path d="M9.949951171875,1.25L10.050048828125,1.25C10.714111328125,1.25,11.287109375,1.25,11.74609375,1.31201171875C12.238037109375,1.37799072265625,12.708984375,1.5269775390625,13.091064453125,1.90899658203125C13.472900390625,2.291015625,13.6220703125,2.76300048828125,13.68798828125,3.2540283203125C13.72802734375,3.54296875,13.741943359375,3.87701416015625,13.7470703125,4.25L14.320068359375,4.25C15.21240234375,4.25006103515625,16.0927734375,4.4578857421875,16.89111328125,4.85699462890625L17.009033203125,4.9169921875C17.952880859375,3.89697265625,19.623046875,3.87701416015625,20.875,4.5999755859375C22.287109375,5.4150390625,23.14794921875,7.16400146484375,22.31494140625,8.60699462890625C21.48193359375,10.04998779296875,19.537109375,10.177978515625,18.125,9.363037109375C17.0048828125,8.71600341796875,16.22998046875,7.48095703125,16.3759765625,6.2769775390625L16.219970703125,6.198974609375C15.630126953125,5.9039306640625,14.9794921875,5.750244140625,14.320068359375,5.75L13.75,5.75L13.75,7L13.7490234375,7.04400634765625C16.52587890625,8.2869873046875,18.51708984375,10.8699951171875,18.73095703125,13.9439697265625C18.7509765625,14.0286865234375,18.755615234375,14.1153564453125,18.7451171875,14.2039794921875C18.748291015625,14.29998779296875,18.75,14.39697265625,18.75,14.4949951171875C18.75,16.615966796875,17.89990234375,18.5450439453125,16.51611328125,19.9990234375L16.498046875,20.0169677734375C16.283935546875,20.25653076171875,16.047119140625,20.474853515625,15.791015625,20.66900634765625C15.4970703125,20.885009765625,15.14697265625,21.07098388671875,14.64892578125,21.2850341796875C13.56396484375,21.75,12.77490234375,21.75,11.51708984375,21.75L8.48291015625,21.75C7.22509765625,21.75,6.43603515625,21.75,5.35107421875,21.2850341796875C4.85302734375,21.07098388671875,4.5029296875,20.885009765625,4.208984375,20.66900634765625C3.952880859375,20.474853515625,3.716064453125,20.25653076171875,3.501953125,20.0169677734375L3.48388671875,20C2.10009765625,18.5450439453125,1.25,16.615966796875,1.25,14.4949951171875C1.25,11.17999267578125,3.31005859375,8.3609619140625,6.2509765625,7.0450439453125L6.25,7L6.25,5.5L6.2509765625,5.4599609375L6.25,5.4219970703125L6.25,4.95001220703125C6.25,4.2850341796875,6.25,3.7120361328125,6.31201171875,3.25299072265625C6.3779296875,2.761962890625,6.527099609375,2.2900390625,6.908935546875,1.907958984375C7.291015625,1.5260009765625,7.762939453125,1.37701416015625,8.25390625,1.31103515625C8.712890625,1.2490234375,9.285888671875,1.2490234375,9.950927734375,1.2490234375M17.053955078125,12.928955078125C16.299072265625,9.98699951171875,13.464111328125,7.75201416015625,10.009033203125,7.7490234375L9.992919921875,7.7490234375C6.73291015625,7.75201416015625,4.02490234375,9.740966796875,3.095947265625,12.43701171875C3.382080078125,12.56298828125,3.672119140625,12.7030029296875,3.9609375,12.843994140625L4.0810546875,12.90301513671875C4.443115234375,13.0799560546875,4.80810546875,13.25799560546875,5.19091796875,13.427001953125C6.0400390625,13.802978515625,6.943115234375,14.1209716796875,7.946044921875,14.2340087890625C9.205078125,14.3759765625,10.162109375,13.93896484375,11.31591796875,13.4119873046875L11.326904296875,13.406982421875C12.4609375,12.8890380859375,13.787109375,12.28900146484375,15.52197265625,12.5770263671875C16.051025390625,12.6650390625,16.575927734375,12.7850341796875,17.053955078125,12.928955078125M2.77392578125,13.94000244140625C2.94189453125,14.01800537109375,3.117919921875,14.102294921875,3.302001953125,14.1929931640625L3.423095703125,14.25299072265625C3.782958984375,14.427978515625,4.173095703125,14.6180419921875,4.5830078125,14.79998779296875C5.501953125,15.20703125,6.56201171875,15.5889892578125,7.777099609375,15.72601318359375C9.452880859375,15.91400146484375,10.7451171875,15.322998046875,11.840087890625,14.822021484375L11.948974609375,14.77197265625C13.091064453125,14.25201416015625,14.035888671875,13.85198974609375,15.27490234375,14.0570068359375C16.050048828125,14.18701171875,16.751953125,14.38299560546875,17.2490234375,14.58599853515625C17.22607421875,16.259033203125,16.547119140625,17.7900390625,15.428955078125,18.9649658203125C15.197998046875,19.20703125,15.072998046875,19.33599853515625,14.905029296875,19.458984375C14.739013671875,19.58099365234375,14.50390625,19.7149658203125,14.05810546875,19.906005859375C13.27294921875,20.2430419921875,12.76806640625,20.25,11.4580078125,20.25L8.5419921875,20.25C7.23193359375,20.25,6.72705078125,20.2430419921875,5.94189453125,19.906005859375C5.49609375,19.71600341796875,5.261962890625,19.58099365234375,5.094970703125,19.458984375C4.927001953125,19.33599853515625,4.802001953125,19.20703125,4.571044921875,18.9649658203125C3.43310546875,17.76904296875,2.75,16.2039794921875,2.75,14.4949951171875C2.75,14.308349609375,2.758056640625,14.123291015625,2.77392578125,13.94000244140625M12.25,6.25L7.75,6.25L7.75,5.717041015625C7.809326171875,5.706298828125,7.868896484375,5.6920166015625,7.928955078125,5.67401123046875C8.131103515625,5.6109619140625,8.365966796875,5.4859619140625,8.537109375,5.239013671875C8.702880859375,5.0009765625,8.75,4.7340087890625,8.75,4.5C8.75,4.2659912109375,8.702880859375,3.9990234375,8.537109375,3.760009765625C8.388671875,3.55096435546875,8.174072265625,3.3980712890625,7.927978515625,3.32598876953125C7.893798828125,3.315185546875,7.859130859375,3.30615234375,7.823974609375,3.29901123046875C7.866943359375,3.093017578125,7.923095703125,3.0159912109375,7.969970703125,2.968994140625C8.027099609375,2.9129638671875,8.12890625,2.842041015625,8.4541015625,2.79901123046875C8.801025390625,2.75201416015625,9.27197265625,2.75,10,2.75C10.72802734375,2.75,11.199951171875,2.75201416015625,11.5458984375,2.7979736328125C11.87109375,2.842041015625,11.972900390625,2.9129638671875,12.030029296875,2.969970703125C12.0869140625,3.0269775390625,12.157958984375,3.1290283203125,12.201904296875,3.4539794921875C12.248046875,3.801025390625,12.25,4.27197265625,12.25,5ZM18.875,8.06396484375C17.89501953125,7.4990234375,17.712890625,6.5770263671875,17.985107421875,6.10699462890625C18.2548828125,5.636962890625,19.14501953125,5.333984375,20.125,5.89898681640625C21.10498046875,6.4639892578125,21.287109375,7.386962890625,21.014892578125,7.85699462890625C20.7451171875,8.3270263671875,19.85498046875,8.6300048828125,18.875,8.06396484375" fill="2e2e2e" fill-rule="evenodd" clip-rule="evenodd" style="fill: rgb(255, 179, 67); fill-opacity: 1;"/></g></g></g></svg>