<svg width="24" xmlns="http://www.w3.org/2000/svg" height="24" id="screenshot-109121c4-564b-8056-8006-a2b567b94b9f" viewBox="0 0 24 24" xmlns:xlink="http://www.w3.org/1999/xlink" fill="none" version="1.1"><g id="shape-109121c4-564b-8056-8006-a2b567b94b9f" width="64" height="64" rx="0" ry="0" style="fill: rgb(0, 0, 0);"><g id="shape-109121c4-564b-8056-8006-a2b567b94bb1" style="display: none;"><g class="fills" id="fills-109121c4-564b-8056-8006-a2b567b94bb1"><rect width="24" height="24" x="0" stroke-width="2" transform="matrix(1.000000, 0.000000, 0.000000, 1.000000, 0.000000, 0.000000)" style="fill: none;" ry="0" fill="none" rx="0" y="0" color="#252525"/></g></g><g id="shape-109121c4-564b-8056-8006-a2b567b94bb2"><g class="fills" id="fills-109121c4-564b-8056-8006-a2b567b94bb2"><path d="M17,17L21,21" color="#252525" fill="none" stroke-linecap="round" stroke-linejoin="round" style="fill: none;"/></g><g color="#252525" fill="none" stroke-linecap="round" stroke-linejoin="round" id="strokes-cd017522-3e9b-80f7-8006-d36be1d7211e-109121c4-564b-8056-8006-a2b567b94bb2" class="strokes"><g class="stroke-shape"><path d="M17,17L21,21" style="fill: none; stroke-width: 2; stroke: rgb(37, 37, 37); stroke-opacity: 1;"/></g></g></g><g id="shape-109121c4-564b-8056-8006-a2b567b94bb3"><g class="fills" id="fills-109121c4-564b-8056-8006-a2b567b94bb3"><path d="M3,11C3,15.418212890625,6.581787109375,19,11,19C13.212890625,19,15.216064453125,18.1015625,16.664306640625,16.6492919921875C18.107666015625,15.2021484375,19,13.205322265625,19,11C19,6.581787109375,15.418212890625,3,11,3C6.581787109375,3,3,6.581787109375,3,11Z" color="#252525" fill="none" stroke-linecap="round" stroke-linejoin="round" style="fill: none;"/></g><g color="#252525" fill="none" stroke-linecap="round" stroke-linejoin="round" id="strokes-cd017522-3e9b-80f7-8006-d36be1d7c3e2-109121c4-564b-8056-8006-a2b567b94bb3" class="strokes"><g class="stroke-shape"><path d="M3,11C3,15.418212890625,6.581787109375,19,11,19C13.212890625,19,15.216064453125,18.1015625,16.664306640625,16.6492919921875C18.107666015625,15.2021484375,19,13.205322265625,19,11C19,6.581787109375,15.418212890625,3,11,3C6.581787109375,3,3,6.581787109375,3,11Z" style="fill: none; stroke-width: 2; stroke: rgb(37, 37, 37); stroke-opacity: 1;"/></g></g></g></g></svg>