<svg width="24" xmlns="http://www.w3.org/2000/svg" height="24" id="screenshot-c12c335d-2a7c-80fd-8006-d38c6926ef9f" viewBox="0 0 24 24" xmlns:xlink="http://www.w3.org/1999/xlink" fill="none" version="1.1"><g id="shape-c12c335d-2a7c-80fd-8006-d38c6926ef9f" width="24" height="24" rx="0" ry="0" style="fill: rgb(0, 0, 0);"><g id="shape-c12c335d-2a7c-80fd-8006-d38c6929f782" style="display: none;"><g class="fills" id="fills-c12c335d-2a7c-80fd-8006-d38c6929f782"><rect width="24" height="24" x="0" transform="matrix(1.000000, 0.000000, 0.000000, 1.000000, 0.000000, 0.000000)" style="fill: rgb(255, 179, 67); fill-opacity: 1;" ry="0" fill="none" rx="0" y="0"/></g><g fill="none" id="strokes-28d930d5-ac6a-80ea-8006-d38cca23ae47-c12c335d-2a7c-80fd-8006-d38c6929f782" class="strokes"><g class="inner-stroke-shape" transform="matrix(1.000000, 0.000000, 0.000000, 1.000000, 0.000000, 0.000000)"><defs><clipPath id="inner-stroke-render-2-c12c335d-2a7c-80fd-8006-d38c6929f782-0"><use href="#stroke-shape-render-2-c12c335d-2a7c-80fd-8006-d38c6929f782-0"/></clipPath><rect rx="0" ry="0" x="0" y="0" width="24" height="24" id="stroke-shape-render-2-c12c335d-2a7c-80fd-8006-d38c6929f782-0" style="fill: none; stroke-width: 4; stroke: rgb(255, 179, 67); stroke-opacity: 1;"/></defs><use href="#stroke-shape-render-2-c12c335d-2a7c-80fd-8006-d38c6929f782-0" clip-path="url('#inner-stroke-render-2-c12c335d-2a7c-80fd-8006-d38c6929f782-0')"/></g></g></g><g id="shape-c12c335d-2a7c-80fd-8006-d38c692ab023"><g class="fills" id="fills-c12c335d-2a7c-80fd-8006-d38c692ab023"><path d="M8,20L8,10M8,20L5,17M8,20L11,17M16,4L16,14M16,4L19,7M16,4L13,7" fill="none" stroke="2e2e2e" stroke-linecap="round" stroke-linejoin="round" stroke-width="2" style="fill: rgb(255, 179, 67); fill-opacity: 1;"/></g><g fill="none" stroke="2e2e2e" stroke-linecap="round" stroke-linejoin="round" stroke-width="2" id="strokes-28d930d5-ac6a-80ea-8006-d38cca24be3d-c12c335d-2a7c-80fd-8006-d38c692ab023" class="strokes"><g class="stroke-shape"><path d="M8,20L8,10M8,20L5,17M8,20L11,17M16,4L16,14M16,4L19,7M16,4L13,7" style="fill: none; stroke-width: 2; stroke: rgb(255, 179, 67); stroke-opacity: 1;"/></g></g></g></g></svg>